<svg id="Layer_1" data-name="Layer 1" xmlns="http://www.w3.org/2000/svg" xmlns:xlink="http://www.w3.org/1999/xlink" viewBox="0 0 500 445.34"><defs><style>.cls-1{fill:none;}.cls-2{clip-path:url(#clip-path);}.cls-3{fill:#cbcbca;}</style><clipPath id="clip-path" transform="translate(0 -27.33)"><rect class="cls-1" y="27.33" width="500" height="445.34"/></clipPath></defs><title>ciężarówka</title><g class="cls-2"><path class="cls-3" d="M296.94,305.47h-267A30,30,0,0,1,0,275.54V57.27A30,30,0,0,1,29.94,27.33h267a30,30,0,0,1,29.94,29.94V275.54a30,30,0,0,1-29.94,29.93M29.94,48a9.3,9.3,0,0,0-9.29,9.29V275.54a9.41,9.41,0,0,0,9.29,9.28h267a9.4,9.4,0,0,0,9.28-9.28V57.27A9.41,9.41,0,0,0,296.94,48Z" transform="translate(0 -27.33)"/><path class="cls-3" d="M484.67,305.47H386.28A32,32,0,0,1,363.76,296a31.13,31.13,0,0,1-9.16-22.32l.69-81.51a10.33,10.33,0,1,1,20.65.17l-.69,81.51a10.62,10.62,0,0,0,3.17,7.6,11.16,11.16,0,0,0,7.86,3.34h98.39a10.33,10.33,0,1,1,0,20.65" transform="translate(0 -27.33)"/><path class="cls-3" d="M49.15,401.38H42c-14.81,0-42-11.37-42-29.94V259.32a10.33,10.33,0,0,1,20.65,0V371.13c1.61,3.55,14,9.6,21.37,9.6h7.13a10.33,10.33,0,0,1,0,20.65" transform="translate(0 -27.33)"/><path class="cls-3" d="M470.06,401.38H430.71a10.33,10.33,0,0,1,0-20.65h39.35a9.29,9.29,0,0,0,6.63-2.83,8.89,8.89,0,0,0,2.66-6.36l-.69-68.18a85.13,85.13,0,0,0-15.4-47.87l-36.59-50.8c-4.68-6.49-20.33-15.32-27.14-15.32h-.09l-83.46,1h-.12a10.33,10.33,0,0,1-.12-20.65l83.45-1h.3c14.83,0,36.09,13,43.94,23.91L480,243.42c12.05,16.72,19.09,38.49,19.3,59.73l.69,68.18a29.44,29.44,0,0,1-8.63,21.1,30.25,30.25,0,0,1-21.31,8.95" transform="translate(0 -27.33)"/><path class="cls-3" d="M304.71,401.38H175.14a10.33,10.33,0,0,1,0-20.65H304.71a10.33,10.33,0,1,1,0,20.65" transform="translate(0 -27.33)"/><path class="cls-3" d="M107.88,435.68a32.34,32.34,0,1,1,32.34-32.33,32.36,32.36,0,0,1-32.34,32.33m0-44a11.69,11.69,0,1,0,11.69,11.69,11.7,11.7,0,0,0-11.69-11.69" transform="translate(0 -27.33)"/><path class="cls-3" d="M368.52,435.68a32.34,32.34,0,1,1,32.34-32.33,32.36,32.36,0,0,1-32.34,32.33m0-44a11.69,11.69,0,1,0,11.69,11.69,11.7,11.7,0,0,0-11.69-11.69" transform="translate(0 -27.33)"/><path class="cls-3" d="M368.52,472.67a69.33,69.33,0,1,1,69.33-69.32,69.4,69.4,0,0,1-69.33,69.32m0-118a48.68,48.68,0,1,0,48.68,48.68,48.73,48.73,0,0,0-48.68-48.68" transform="translate(0 -27.33)"/><path class="cls-3" d="M107.89,472.67a69.33,69.33,0,1,1,69.32-69.32,69.4,69.4,0,0,1-69.32,69.32m0-118a48.68,48.68,0,1,0,48.67,48.68,48.73,48.73,0,0,0-48.67-48.68" transform="translate(0 -27.33)"/></g></svg>