<svg id="Layer_1" data-name="Layer 1" xmlns="http://www.w3.org/2000/svg" xmlns:xlink="http://www.w3.org/1999/xlink" viewBox="0 0 494.61 499.99"><defs><style>.cls-1{fill:none;}.cls-2{clip-path:url(#clip-path);}.cls-3{fill:#3e3c3c;}</style><clipPath id="clip-path" transform="translate(-2.69 -0.01)"><rect class="cls-1" x="2.69" width="494.61" height="500"/></clipPath></defs><title>dom</title><g class="cls-2"><path class="cls-3" d="M497.23,190.69A17.26,17.26,0,0,0,490.4,177L260.3,3.48a17.15,17.15,0,0,0-20.69,0L9.53,177a17.21,17.21,0,0,0-6.84,13.72V482.82A17.19,17.19,0,0,0,19.88,500H479.51a17.8,17.8,0,0,0,17.8-17.8ZM278.1,465.62H221.81V341H278.1Zm34.38,0V323.81a17.19,17.19,0,0,0-17.19-17.19H204.62a17.19,17.19,0,0,0-17.19,17.19V465.62H37.07V199.26L250,38.73,462.86,199.26V465.62Z" transform="translate(-2.69 -0.01)"/></g></svg>