<svg id="Layer_1" data-name="Layer 1" xmlns="http://www.w3.org/2000/svg" xmlns:xlink="http://www.w3.org/1999/xlink" viewBox="0 0 487.27 500"><defs><style>.cls-1{fill:none;}.cls-2{clip-path:url(#clip-path);}.cls-3{fill:#cbcbca;}</style><clipPath id="clip-path" transform="translate(-6.36 0)"><rect class="cls-1" x="6.36" width="487.27" height="500"/></clipPath></defs><title>kontener</title><g class="cls-2"><path class="cls-3" d="M280,57.71H220a10.56,10.56,0,0,1-8.17-3.87l-30-36.58A10.56,10.56,0,0,1,190,0H310a10.56,10.56,0,0,1,8.17,17.26l-30,36.58A10.54,10.54,0,0,1,280,57.71M225,36.58h50l12.68-15.45H212.34Z" transform="translate(-6.36 0)"/><path class="cls-3" d="M252.18,152.49A43.13,43.13,0,0,1,222.6,141,38.86,38.86,0,0,1,210,112.39c0-12.4,5-23.12,13.62-29.42,5.72-4.16,10.25-6.92,13.56-8.94,1.67-1,3.51-2.14,4.47-2.85V58a10.56,10.56,0,0,1,21.12,0V70.35c.2,12.71-7,17.09-14.6,21.72C245,94,241,96.4,236,100.05c-3.08,2.24-4.92,6.86-4.92,12.34A18,18,0,0,0,237,125.56a22.72,22.72,0,0,0,30.34,0,17.92,17.92,0,0,0,5.91-13.16,10.57,10.57,0,0,1,21.13,0A38.86,38.86,0,0,1,281.76,141a43.13,43.13,0,0,1-29.58,11.49" transform="translate(-6.36 0)"/><path class="cls-3" d="M459.07,500H40.93c-10.34,0-34.57,0-34.57-28.12V224.36c0-28.11,24.23-28.11,34.57-28.11H459.07c10.34,0,34.57,0,34.57,28.11V471.88c0,28.12-25.12,28.12-34.57,28.12M40.93,217.37c-9,0-11.73,1.21-12.47,1.72-.48.34-1,2.1-1,5.27V471.88c0,2.78.39,4.84,1,5.26s3.47,1.73,12.44,1.73H459.07c8.94,0,11.67-1.22,12.42-1.75s1-2.49,1-5.24V224.36c0-2.77-.39-4.83-1-5.25s-3.46-1.74-12.45-1.74Z" transform="translate(-6.36 0)"/><path class="cls-3" d="M434,215.33a10.49,10.49,0,0,1-3.75-.69l-169.92-64.5a10.56,10.56,0,1,1,7.49-19.75l169.93,64.49A10.57,10.57,0,0,1,434,215.33" transform="translate(-6.36 0)"/><path class="cls-3" d="M66,215.33a10.57,10.57,0,0,1-3.75-20.45L232.2,130.39a10.56,10.56,0,1,1,7.5,19.75L69.77,214.64a10.48,10.48,0,0,1-3.74.69" transform="translate(-6.36 0)"/><path class="cls-3" d="M78.15,459.77A10.56,10.56,0,0,1,67.59,449.2V247a10.56,10.56,0,1,1,21.12,0V449.2a10.56,10.56,0,0,1-10.56,10.57" transform="translate(-6.36 0)"/><path class="cls-3" d="M135.43,459.77a10.56,10.56,0,0,1-10.56-10.57V247A10.57,10.57,0,0,1,146,247V449.2a10.57,10.57,0,0,1-10.57,10.57" transform="translate(-6.36 0)"/><path class="cls-3" d="M192.71,459.77h0a10.56,10.56,0,0,1-10.56-10.57V247a10.57,10.57,0,0,1,21.13,0V449.2a10.57,10.57,0,0,1-10.57,10.57" transform="translate(-6.36 0)"/><path class="cls-3" d="M250,459.77a10.56,10.56,0,0,1-10.56-10.57V247a10.56,10.56,0,1,1,21.12,0V449.2A10.56,10.56,0,0,1,250,459.77" transform="translate(-6.36 0)"/><path class="cls-3" d="M307.28,459.77h0a10.56,10.56,0,0,1-10.56-10.57V247a10.57,10.57,0,0,1,21.13,0V449.2a10.57,10.57,0,0,1-10.57,10.57" transform="translate(-6.36 0)"/><path class="cls-3" d="M364.57,459.77h0A10.57,10.57,0,0,1,354,449.2V247a10.57,10.57,0,0,1,21.13,0V449.2a10.56,10.56,0,0,1-10.56,10.57" transform="translate(-6.36 0)"/><path class="cls-3" d="M421.85,459.77a10.56,10.56,0,0,1-10.56-10.57V247a10.56,10.56,0,1,1,21.12,0V449.2a10.56,10.56,0,0,1-10.56,10.57" transform="translate(-6.36 0)"/></g></svg>