<svg id="Layer_1" data-name="Layer 1" xmlns="http://www.w3.org/2000/svg" xmlns:xlink="http://www.w3.org/1999/xlink" viewBox="0 0 500.02 358.69"><defs><style>.cls-1{fill:none;}.cls-2{clip-path:url(#clip-path);}.cls-3{fill:#3e3c3c;}</style><clipPath id="clip-path" transform="translate(0 -65.18)"><rect class="cls-1" y="65.18" width="500" height="358.69"/></clipPath></defs><title>list</title><g class="cls-2"><path class="cls-3" d="M497.37,98.63c-.08-.24-.16-.48-.25-.73s-.21-.63-.33-.92-.22-.62-.34-.92-.24-.62-.38-.92-.24-.59-.37-.89-.26-.6-.4-.91-.27-.56-.41-.84-.28-.6-.43-.89-.3-.56-.44-.84-.31-.58-.48-.86-.3-.54-.47-.82-.33-.56-.5-.84l-.5-.8-.53-.81c-.17-.26-.35-.51-.52-.76s-.38-.55-.57-.81-.37-.48-.56-.73-.4-.53-.59-.78l-.57-.7c-.22-.25-.42-.51-.63-.76s-.4-.47-.6-.67-.44-.5-.66-.73-.42-.44-.62-.66l-.68-.71c-.22-.22-.44-.41-.64-.63l-.73-.68-.67-.59c-.24-.22-.5-.44-.73-.66s-.47-.39-.71-.56a9.31,9.31,0,0,0-.76-.62c-.23-.19-.47-.37-.7-.53s-.53-.42-.79-.62l-.73-.5-.83-.58c-.23-.17-.5-.31-.75-.48s-.54-.36-.82-.53l-.78-.46c-.28-.16-.56-.33-.86-.49s-.51-.28-.79-.42-.58-.32-.87-.46l-.81-.41-.89-.42c-.26-.14-.56-.26-.84-.39s-.57-.25-.89-.37a8.26,8.26,0,0,0-.87-.34q-.43-.2-.9-.36a6.22,6.22,0,0,0-.89-.31c-.29-.11-.59-.22-.9-.31s-.61-.21-.92-.3l-.9-.27-.94-.26c-.31-.08-.6-.16-.91-.22l-1-.22c-.31-.07-.61-.15-.92-.21l-1-.17-.88-.16-1.09-.17-.84-.11-1.16-.13-.78-.06-1.29-.08-.69,0c-.65,0-1.32,0-2,0H48.92c-.67,0-1.34,0-2,0l-.69,0L45,65.33l-.78.06L43,65.52l-.84.11-1.09.17L40.2,66c-.34.06-.68.1-1,.17l-.92.2-1,.22-.92.23-.93.25c-.31.11-.61.2-.92.28l-.9.28-.92.33a8.59,8.59,0,0,0-.89.31l-.9.36c-.28.09-.57.21-.85.32s-.61.28-.91.39-.56.25-.84.39l-.87.42-.83.41c-.28.14-.57.29-.87.46s-.53.27-.78.42l-.85.49-.78.46c-.28.17-.54.36-.82.53s-.52.31-.77.48l-.81.58c-.23.17-.48.34-.73.5l-.79.61-.7.54c-.27.19-.52.41-.78.62s-.45.38-.69.56l-.73.66-.67.59-.71.68c-.22.22-.44.41-.66.63s-.45.46-.68.71-.41.42-.62.66-.44.48-.66.73-.4.43-.6.67l-.63.76-.57.68c-.21.27-.41.55-.6.8l-.56.73L9,85.88l-.53.76c-.18.27-.35.55-.52.81s-.35.53-.5.8-.34.56-.52.84-.31.54-.46.82-.31.58-.47.86-.3.54-.44.84-.29.57-.43.89l-.42.84c-.13.31-.27.6-.39.91s-.27.6-.37.89-.25.61-.38.92-.23.61-.36.92-.2.61-.31.92-.18.49-.26.73A44.82,44.82,0,0,0,0,114.09V374.94a49,49,0,0,0,47.08,48.88c.28,0,.56,0,.85,0l1,0H451.37A48.47,48.47,0,0,0,497.79,390a19.17,19.17,0,0,0,.54-2.37A48.75,48.75,0,0,0,500,374.94V114.09a44.59,44.59,0,0,0-2.64-15.46M39,101.24a7.11,7.11,0,0,1,.62-.46l.47-.33c.22-.12.43-.27.64-.39s.34-.2.51-.3.44-.21.67-.34a4.67,4.67,0,0,1,.51-.23l.7-.3.53-.2.75-.25c.17,0,.36-.09.55-.14l.79-.19.51-.09a8.68,8.68,0,0,1,.91-.12,2,2,0,0,1,.43-.07c.45,0,.9,0,1.37,0H451.09c.47,0,.92,0,1.37,0a2,2,0,0,1,.43.07,8.68,8.68,0,0,1,.91.12c.17,0,.34.06.53.11l.77.17a5.54,5.54,0,0,0,.55.14c.25.08.5.16.73.25l.55.2.7.3a3.59,3.59,0,0,1,.53.25l.65.32c.17.1.34.19.5.3s.43.27.65.39l.47.33c.2.15.42.29.62.46l.33.27L261.52,301.36a16.31,16.31,0,0,1-23,0L38.63,101.51c.11-.1.22-.17.33-.27m-6.35,40.35L135.67,244.65,32.61,347.7ZM451.09,391.26H49.19a16.29,16.29,0,0,1-10.29-3.71L158.72,267.72l56.71,56.7a48.9,48.9,0,0,0,69.15,0l57-57,120,120a16.31,16.31,0,0,1-10.47,3.82m16.31-44.09L364.6,244.37,467.4,141.59Z" transform="translate(0 -65.18)"/></g></svg>