<svg id="Layer_1" data-name="Layer 1" xmlns="http://www.w3.org/2000/svg" viewBox="0 0 496.99 499.7"><defs><style>.cls-1{fill:#fff;}</style></defs><title>lupa</title><path class="cls-1" d="M65.44,377.48c-85.9-86.83-85.15-227.34,1.68-313.24s227.35-85.15,313.25,1.67,85.14,227.35-1.69,313.25S151.34,464.3,65.44,377.48M346.18,99.73c-67.24-68-177.26-68.56-245.24-1.32S32.38,275.68,99.62,343.66,276.89,412.22,344.87,345s68.56-177.27,1.31-245.25" transform="translate(-1.5 -0.3)"/><path class="cls-1" d="M457.36,492.87,344.68,379a24,24,0,0,1,34.19-33.82L491.54,459.05a24,24,0,1,1-34.18,33.82" transform="translate(-1.5 -0.3)"/></svg>