<svg id="Layer_1" data-name="Layer 1" xmlns="http://www.w3.org/2000/svg" xmlns:xlink="http://www.w3.org/1999/xlink" viewBox="0 0 500 487.67"><defs><style>.cls-1{fill:none;}.cls-2{clip-path:url(#clip-path);}.cls-3{fill:#cbcbca;}</style><clipPath id="clip-path" transform="translate(0 -6.17)"><rect class="cls-1" y="6.17" width="500" height="487.67"/></clipPath></defs><title>magazyn</title><g class="cls-2"><path class="cls-3" d="M489.44,493.83H410.5a10.56,10.56,0,0,1-10.57-10.56V188.59H100.07V483.27A10.56,10.56,0,0,1,89.5,493.83H10.56A10.56,10.56,0,0,1,0,483.27V122.41a10.56,10.56,0,0,1,6.3-9.66L245.73,7.07a10.58,10.58,0,0,1,8.54,0L493.7,112.75a10.56,10.56,0,0,1,6.3,9.66V483.27a10.56,10.56,0,0,1-10.56,10.56m-68.38-21.12h57.81V129.3L250,28.27,21.13,129.3V472.71H78.94V178A10.56,10.56,0,0,1,89.5,167.46h321A10.56,10.56,0,0,1,421.06,178Z" transform="translate(0 -6.17)"/><path class="cls-3" d="M200.94,262.77H94.38a10.57,10.57,0,1,1,0-21.13H200.94a10.57,10.57,0,0,1,0,21.13" transform="translate(0 -6.17)"/><path class="cls-3" d="M306.19,350.67a10.56,10.56,0,0,1-10.57-10.56V262.77H210.19v77.34a10.57,10.57,0,0,1-21.13,0v-87.9a10.56,10.56,0,0,1,10.56-10.57H306.19a10.56,10.56,0,0,1,10.56,10.57v87.9a10.56,10.56,0,0,1-10.56,10.56" transform="translate(0 -6.17)"/><path class="cls-3" d="M200.94,436.87H94.38a10.57,10.57,0,1,1,0-21.13h96V349h-96a10.56,10.56,0,1,1,0-21.12H200.94A10.56,10.56,0,0,1,211.5,338.4v87.9a10.56,10.56,0,0,1-10.56,10.57" transform="translate(0 -6.17)"/><path class="cls-3" d="M306.19,436.87H199.62a10.57,10.57,0,0,1,0-21.13h96V349h-96a10.56,10.56,0,0,1,0-21.12H306.19a10.56,10.56,0,0,1,10.56,10.56v87.9a10.56,10.56,0,0,1-10.56,10.57" transform="translate(0 -6.17)"/><path class="cls-3" d="M411.44,349H304.87a10.56,10.56,0,0,1,0-21.12H411.44a10.56,10.56,0,1,1,0,21.12" transform="translate(0 -6.17)"/><path class="cls-3" d="M411.44,436.87H304.87a10.57,10.57,0,0,1,0-21.13H411.44a10.57,10.57,0,0,1,0,21.13" transform="translate(0 -6.17)"/></g></svg>