<svg id="Layer_1" data-name="Layer 1" xmlns="http://www.w3.org/2000/svg" xmlns:xlink="http://www.w3.org/1999/xlink" viewBox="0 0 500 499.98"><defs><style>.cls-1{fill:none;}.cls-2{clip-path:url(#clip-path);}.cls-3{fill:#3e3c3c;}</style><clipPath id="clip-path" transform="translate(0 -0.01)"><rect class="cls-1" width="500" height="500"/></clipPath></defs><title>telefon</title><g class="cls-2"><path class="cls-3" d="M0,58.89A58.79,58.79,0,0,1,58.73,0h78.86a58.58,58.58,0,0,1,58.35,51.93,284.55,284.55,0,0,0,10.67,51.46,58.75,58.75,0,0,1-14.5,58.81l-32,32A368.3,368.3,0,0,0,305.83,339.84l32-31.94a58.68,58.68,0,0,1,58.8-14.5,286,286,0,0,0,51.46,10.68A58.56,58.56,0,0,1,500,362.42v78.84a58.82,58.82,0,0,1-64.28,58.49,478.73,478.73,0,0,1-162.39-44.56,482.9,482.9,0,0,1-133.88-94.63,482,482,0,0,1-94.62-133.9A478.2,478.2,0,0,1,.25,64.29C.09,62.49,0,60.7,0,58.89m170.14,61.9a20.73,20.73,0,0,0-.89-6,326.17,326.17,0,0,1-12.14-58.52,19.53,19.53,0,0,0-19.52-17.25H58.73a19.36,19.36,0,0,0-14.48,6.4A19.61,19.61,0,0,0,39.14,60.7C58.7,273,227,441.31,439.3,460.85a19.7,19.7,0,0,0,15.24-5.09,19.46,19.46,0,0,0,6.4-14.5V362.42a19.55,19.55,0,0,0-17.27-19.54,325.05,325.05,0,0,1-58.5-12.12,19.69,19.69,0,0,0-19.77,4.76l-52,52-12.59-6.26a407.35,407.35,0,0,1-182.08-182.1l-6.26-12.59,52-52a19.49,19.49,0,0,0,5.65-13.8" transform="translate(0 -0.01)"/></g></svg>